<svg width="20" height="20" viewBox="0 0 20 20" fill="none" xmlns="http://www.w3.org/2000/svg">
<path d="M9 14.9999H11V10.9999H15V8.99988H11V4.99988H9V8.99988H5V10.9999H9V14.9999ZM10 19.9999C8.61667 19.9999 7.31667 19.7415 6.1 19.2249C4.88333 18.6915 3.825 17.9749 2.925 17.0749C2.025 16.1749 1.30833 15.1165 0.775 13.8999C0.258333 12.6832 0 11.3832 0 9.99988C0 8.61654 0.258333 7.31654 0.775 6.09988C1.30833 4.88321 2.025 3.82488 2.925 2.92488C3.825 2.02488 4.88333 1.31654 6.1 0.799877C7.31667 0.266544 8.61667 -0.00012207 10 -0.00012207C11.3833 -0.00012207 12.6833 0.266544 13.9 0.799877C15.1167 1.31654 16.175 2.02488 17.075 2.92488C17.975 3.82488 18.6833 4.88321 19.2 6.09988C19.7333 7.31654 20 8.61654 20 9.99988C20 11.3832 19.7333 12.6832 19.2 13.8999C18.6833 15.1165 17.975 16.1749 17.075 17.0749C16.175 17.9749 15.1167 18.6915 13.9 19.2249C12.6833 19.7415 11.3833 19.9999 10 19.9999ZM10 17.9999C12.2333 17.9999 14.125 17.2249 15.675 15.6749C17.225 14.1249 18 12.2332 18 9.99988C18 7.76654 17.225 5.87488 15.675 4.32488C14.125 2.77488 12.2333 1.99988 10 1.99988C7.76667 1.99988 5.875 2.77488 4.325 4.32488C2.775 5.87488 2 7.76654 2 9.99988C2 12.2332 2.775 14.1249 4.325 15.6749C5.875 17.2249 7.76667 17.9999 10 17.9999Z" fill="#1D1B20"/>
</svg>
