<svg width="39" height="34" viewBox="0 0 39 34" fill="none" xmlns="http://www.w3.org/2000/svg">
<path d="M19.5 12.1135V18.7423M19.5 25.3712H19.5168M16.6358 3.59547L2.44892 27.0284C2.15642 27.5296 2.00165 28.0978 2.00001 28.6765C1.99838 29.2552 2.14993 29.8243 2.43959 30.3271C2.72925 30.8299 3.14692 31.2489 3.65105 31.5424C4.15518 31.8359 4.7282 31.9936 5.3131 32H33.6869C34.2718 31.9936 34.8448 31.8359 35.3489 31.5424C35.8531 31.2489 36.2708 30.8299 36.5604 30.3271C36.8501 29.8243 37.0016 29.2552 37 28.6765C36.9984 28.0978 36.8436 27.5296 36.5511 27.0284L22.3642 3.59547C22.0656 3.10842 21.6452 2.70574 21.1435 2.42628C20.6418 2.14682 20.0757 2 19.5 2C18.9243 2 18.3582 2.14682 17.8565 2.42628C17.3548 2.70574 16.9344 3.10842 16.6358 3.59547Z" stroke="#1E1E1E" stroke-width="4" stroke-linecap="round" stroke-linejoin="round"/>
</svg>
