<svg width="44" height="39" viewBox="0 0 44 39" fill="none" xmlns="http://www.w3.org/2000/svg">
<path d="M22 13.7991V21.5327M22 29.2664H22.0191M18.7267 3.86138L2.51305 31.1998C2.17876 31.7845 2.00189 32.4474 2.00002 33.1226C1.99814 33.7978 2.17134 34.4617 2.50238 35.0483C2.83342 35.6349 3.31076 36.1237 3.88692 36.4661C4.46307 36.8085 5.11795 36.9926 5.7864 37H38.2136C38.8821 36.9926 39.5369 36.8085 40.1131 36.4661C40.6892 36.1237 41.1666 35.6349 41.4976 35.0483C41.8287 34.4617 42.0019 33.7978 42 33.1226C41.9981 32.4474 41.8212 31.7845 41.4869 31.1998L25.2733 3.86138C24.9321 3.29316 24.4516 2.82337 23.8782 2.49733C23.3049 2.17128 22.658 2 22 2C21.342 2 20.6951 2.17128 20.1218 2.49733C19.5484 2.82337 19.0679 3.29316 18.7267 3.86138Z" stroke="white" stroke-width="4" stroke-linecap="round" stroke-linejoin="round"/>
</svg>
