<svg width="25" height="26" viewBox="0 0 25 26" fill="none" xmlns="http://www.w3.org/2000/svg">
<path d="M2.77778 25.5C2.01389 25.5 1.35417 25.2338 0.798611 24.7014C0.266204 24.1458 0 23.4861 0 22.7222V3.27778C0 2.51389 0.266204 1.86574 0.798611 1.33333C1.35417 0.777778 2.01389 0.5 2.77778 0.5H22.2222C22.9861 0.5 23.6343 0.777778 24.1667 1.33333C24.7222 1.86574 25 2.51389 25 3.27778V22.7222C25 23.4861 24.7222 24.1458 24.1667 24.7014C23.6343 25.2338 22.9861 25.5 22.2222 25.5H2.77778ZM2.77778 22.7222H22.2222V18.5556H18.0556C17.3611 19.4352 16.5278 20.1181 15.5556 20.6042C14.6065 21.0903 13.588 21.3333 12.5 21.3333C11.412 21.3333 10.3819 21.0903 9.40972 20.6042C8.46065 20.1181 7.63889 19.4352 6.94444 18.5556H2.77778V22.7222ZM12.5 18.5556C13.3796 18.5556 14.1782 18.3009 14.8958 17.7917C15.6134 17.2824 16.1111 16.6111 16.3889 15.7778H22.2222V3.27778H2.77778V15.7778H8.61111C8.88889 16.6111 9.38657 17.2824 10.1042 17.7917C10.8218 18.3009 11.6204 18.5556 12.5 18.5556ZM2.77778 22.7222H6.94444C7.63889 22.7222 8.46065 22.7222 9.40972 22.7222C10.3819 22.7222 11.412 22.7222 12.5 22.7222C13.588 22.7222 14.6065 22.7222 15.5556 22.7222C16.5278 22.7222 17.3611 22.7222 18.0556 22.7222H22.2222H2.77778Z" fill="#1E1E1E"/>
</svg>
