<svg width="24" height="24" viewBox="0 0 24 24" fill="none" xmlns="http://www.w3.org/2000/svg">
<path d="M4 19.9995C3.45 19.9995 2.97917 19.8036 2.5875 19.412C2.19583 19.0203 2 18.5495 2 17.9995V5.99945C2 5.44945 2.19583 4.97862 2.5875 4.58695C2.97917 4.19528 3.45 3.99945 4 3.99945H10L12 5.99945H20C20.55 5.99945 21.0208 6.19528 21.4125 6.58695C21.8042 6.97862 22 7.44945 22 7.99945V17.9995C22 18.5495 21.8042 19.0203 21.4125 19.412C21.0208 19.8036 20.55 19.9995 20 19.9995H4ZM4 17.9995H20V7.99945H11.175L9.175 5.99945H4V17.9995Z" fill="#1E1E1E"/>
</svg>
