<svg width="24" height="24" viewBox="0 0 24 24" fill="none" xmlns="http://www.w3.org/2000/svg">
<path d="M5 20.9999C4.45 20.9999 3.975 20.8083 3.575 20.4249C3.19167 20.0249 3 19.5499 3 18.9999V4.99994C3 4.44994 3.19167 3.98327 3.575 3.59994C3.975 3.19994 4.45 2.99994 5 2.99994H19C19.55 2.99994 20.0167 3.19994 20.4 3.59994C20.8 3.98327 21 4.44994 21 4.99994V18.9999C21 19.5499 20.8 20.0249 20.4 20.4249C20.0167 20.8083 19.55 20.9999 19 20.9999H5ZM12 15.9999C12.6333 15.9999 13.2083 15.8166 13.725 15.4499C14.2417 15.0833 14.6 14.5999 14.8 13.9999H19V4.99994H5V13.9999H9.2C9.4 14.5999 9.75833 15.0833 10.275 15.4499C10.7917 15.8166 11.3667 15.9999 12 15.9999Z" fill="#1E1E1E"/>
</svg>
