<svg width="24" height="24" viewBox="0 0 24 24" fill="none" xmlns="http://www.w3.org/2000/svg">
<path d="M12 17.9997L16 13.9997L14.6 12.5997L13 14.1997V9.99973H11V14.1997L9.4 12.5997L8 13.9997L12 17.9997ZM5 7.99973V18.9997H19V7.99973H5ZM5 20.9997C4.45 20.9997 3.975 20.8081 3.575 20.4247C3.19167 20.0247 3 19.5497 3 18.9997V6.52473C3 6.29139 3.03333 6.06639 3.1 5.84973C3.18333 5.63306 3.3 5.43306 3.45 5.24973L4.7 3.72473C4.88333 3.49139 5.10833 3.31639 5.375 3.19973C5.65833 3.06639 5.95 2.99973 6.25 2.99973H17.75C18.05 2.99973 18.3333 3.06639 18.6 3.19973C18.8833 3.31639 19.1167 3.49139 19.3 3.72473L20.55 5.24973C20.7 5.43306 20.8083 5.63306 20.875 5.84973C20.9583 6.06639 21 6.29139 21 6.52473V18.9997C21 19.5497 20.8 20.0247 20.4 20.4247C20.0167 20.8081 19.55 20.9997 19 20.9997H5ZM5.4 5.99973H18.6L17.75 4.99973H6.25L5.4 5.99973Z" fill="#1D1B20"/>
</svg>
