<svg width="55" height="56" viewBox="0 0 55 56" fill="none" xmlns="http://www.w3.org/2000/svg">
<path d="M27.5 46.3333L39.7222 34.1111L35.4444 29.8333L30.5556 34.7222V21.8889H24.4444V34.7222L19.5556 29.8333L15.2778 34.1111L27.5 46.3333ZM6.11111 15.7778V49.3889H48.8889V15.7778H6.11111ZM6.11111 55.5C4.43056 55.5 2.97917 54.9144 1.75695 53.7431C0.585649 52.5208 0 51.0694 0 49.3889V11.2708C0 10.5579 0.101852 9.87037 0.305557 9.20833C0.560186 8.5463 0.916667 7.93518 1.375 7.375L5.19445 2.71528C5.75463 2.00232 6.44213 1.46759 7.25694 1.11111C8.12268 0.703703 9.01389 0.5 9.93056 0.5H45.0694C45.9861 0.5 46.8519 0.703703 47.6667 1.11111C48.5324 1.46759 49.2454 2.00232 49.8056 2.71528L53.625 7.375C54.0833 7.93518 54.4143 8.5463 54.6181 9.20833C54.8727 9.87037 55 10.5579 55 11.2708V49.3889C55 51.0694 54.3889 52.5208 53.1667 53.7431C51.9954 54.9144 50.5694 55.5 48.8889 55.5H6.11111ZM7.33333 9.66667H47.6667L45.0694 6.61111H9.93056L7.33333 9.66667Z" fill="#1D1B20"/>
</svg>
