<svg width="24" height="24" viewBox="0 0 24 24" fill="none" xmlns="http://www.w3.org/2000/svg">
<path d="M5.85 17.0998C6.7 16.4498 7.65 15.9373 8.7 15.5623C9.75 15.1873 10.85 14.9998 12 14.9998C13.15 14.9998 14.25 15.1873 15.3 15.5623C16.35 15.9373 17.3 16.4498 18.15 17.0998C18.7333 16.4165 19.1875 15.6415 19.5125 14.7748C19.8375 13.9081 20 12.9831 20 11.9998C20 9.78312 19.2208 7.89562 17.6625 6.33729C16.1042 4.77895 14.2167 3.99979 12 3.99979C9.78333 3.99979 7.89583 4.77895 6.3375 6.33729C4.77917 7.89562 4 9.78312 4 11.9998C4 12.9831 4.1625 13.9081 4.4875 14.7748C4.8125 15.6415 5.26667 16.4165 5.85 17.0998ZM12 12.9998C11.0167 12.9998 10.1875 12.6623 9.5125 11.9873C8.8375 11.3123 8.5 10.4831 8.5 9.49979C8.5 8.51645 8.8375 7.68729 9.5125 7.01229C10.1875 6.33729 11.0167 5.99979 12 5.99979C12.9833 5.99979 13.8125 6.33729 14.4875 7.01229C15.1625 7.68729 15.5 8.51645 15.5 9.49979C15.5 10.4831 15.1625 11.3123 14.4875 11.9873C13.8125 12.6623 12.9833 12.9998 12 12.9998ZM12 21.9998C10.6167 21.9998 9.31667 21.7373 8.1 21.2123C6.88333 20.6873 5.825 19.9748 4.925 19.0748C4.025 18.1748 3.3125 17.1165 2.7875 15.8998C2.2625 14.6831 2 13.3831 2 11.9998C2 10.6165 2.2625 9.31645 2.7875 8.09979C3.3125 6.88312 4.025 5.82479 4.925 4.92479C5.825 4.02479 6.88333 3.31229 8.1 2.78729C9.31667 2.26229 10.6167 1.99979 12 1.99979C13.3833 1.99979 14.6833 2.26229 15.9 2.78729C17.1167 3.31229 18.175 4.02479 19.075 4.92479C19.975 5.82479 20.6875 6.88312 21.2125 8.09979C21.7375 9.31645 22 10.6165 22 11.9998C22 13.3831 21.7375 14.6831 21.2125 15.8998C20.6875 17.1165 19.975 18.1748 19.075 19.0748C18.175 19.9748 17.1167 20.6873 15.9 21.2123C14.6833 21.7373 13.3833 21.9998 12 21.9998Z" fill="#1D1B20"/>
</svg>
